<svg class="animated" id="freepik_stories-teleportation" xmlns="http://www.w3.org/2000/svg" viewBox="0 0 500 500" version="1.1" xmlns:xlink="http://www.w3.org/1999/xlink" xmlns:svgjs="http://svgjs.com/svgjs"><style>svg#freepik_stories-teleportation:not(.animated) .animable {opacity: 0;}svg#freepik_stories-teleportation.animated #freepik--character-2--inject-98 {animation: 1.5s Infinite  linear shake;animation-delay: 0s;}svg#freepik_stories-teleportation.animated #freepik--character-1--inject-98 {animation: 1.5s Infinite  linear shake;animation-delay: 0s;}svg#freepik_stories-teleportation.animated #freepik--Stars--inject-98 {animation: 1.5s Infinite  linear floating;animation-delay: 0s;}            @keyframes shake {                10%, 90% {                    transform: translate3d(-1px, 0, 0);                  }                  20%, 80% {                    transform: translate3d(2px, 0, 0);                  }                  30%, 50%, 70% {                    transform: translate3d(-4px, 0, 0);                  }                  40%, 60% {                    transform: translate3d(4px, 0, 0);                  }            }                    @keyframes floating {                0% {                    opacity: 1;                    transform: translateY(0px);                }                50% {                    transform: translateY(-10px);                }                100% {                    opacity: 1;                    transform: translateY(0px);                }            }        </style><g id="freepik--background-complete--inject-98" class="animable" style="transform-origin: 248.47px 243.46px;"><rect x="60.13" y="87.79" width="107.51" height="340.74" style="fill: rgb(245, 245, 245); transform-origin: 113.885px 258.16px;" id="el3vsnl3xpxzg" class="animable"></rect><rect x="113.88" y="87.79" width="53.76" height="339.8" style="fill: rgb(235, 235, 235); transform-origin: 140.76px 257.69px;" id="els4pw4mhko5l" class="animable"></rect><rect x="72.4" y="54.33" width="37.97" height="33.45" style="fill: rgb(245, 245, 245); transform-origin: 91.385px 71.055px;" id="el5zcns39j6pk" class="animable"></rect><rect x="101.32" y="54.33" width="9.05" height="33.45" style="fill: rgb(235, 235, 235); transform-origin: 105.845px 71.055px;" id="ely2damqz3p6" class="animable"></rect><polyline points="51.17 87.78 51.17 85.83 170.79 85.83 170.79 87.78" style="fill: rgb(224, 224, 224); transform-origin: 110.98px 86.805px;" id="el6v5duhuw0ey" class="animable"></polyline><rect x="81.35" y="102.37" width="9.1" height="19.19" style="fill: rgb(250, 250, 250); transform-origin: 85.9px 111.965px;" id="elx3wxad42yy" class="animable"></rect><path d="M113.88,129.1c0,.2-12,.36-26.87.36s-26.88-.16-26.88-.36,12-.37,26.88-.37S113.88,128.89,113.88,129.1Z" style="fill: rgb(224, 224, 224); transform-origin: 87.005px 129.095px;" id="eldxubp8z7k8r" class="animable"></path><rect x="135.57" y="102.37" width="9.1" height="19.19" style="fill: rgb(224, 224, 224); transform-origin: 140.12px 111.965px;" id="elgbry5zsg2w5" class="animable"></rect><path d="M168.11,129.1c0,.2-12,.36-26.88.36s-26.88-.16-26.88-.36,12-.37,26.88-.37S168.11,128.89,168.11,129.1Z" style="fill: rgb(224, 224, 224); transform-origin: 141.23px 129.095px;" id="elmgnebzvaqlh" class="animable"></path><rect x="135.57" y="140.47" width="9.1" height="19.19" style="fill: rgb(224, 224, 224); transform-origin: 140.12px 150.065px;" id="elgnzur51ksl" class="animable"></rect><path d="M168.11,167.19c0,.21-12,.37-26.88.37s-26.88-.16-26.88-.37,12-.36,26.88-.36S168.11,167,168.11,167.19Z" style="fill: rgb(224, 224, 224); transform-origin: 141.23px 167.195px;" id="el3kpk4kb1svt" class="animable"></path><rect x="135.57" y="179.72" width="9.1" height="19.19" style="fill: rgb(224, 224, 224); transform-origin: 140.12px 189.315px;" id="el5jx2vtftc74" class="animable"></rect><path d="M168.11,206.44c0,.2-12,.37-26.88.37s-26.88-.17-26.88-.37,12-.36,26.88-.36S168.11,206.24,168.11,206.44Z" style="fill: rgb(224, 224, 224); transform-origin: 141.23px 206.445px;" id="elraax22lbadc" class="animable"></path><rect x="135.57" y="218.97" width="9.1" height="19.19" style="fill: rgb(224, 224, 224); transform-origin: 140.12px 228.565px;" id="el90wvv4b2ohh" class="animable"></rect><path d="M168.11,245.69c0,.2-12,.37-26.88.37s-26.88-.17-26.88-.37,12-.37,26.88-.37S168.11,245.49,168.11,245.69Z" style="fill: rgb(224, 224, 224); transform-origin: 141.23px 245.69px;" id="elywkuo82pzi" class="animable"></path><rect x="135.57" y="257.1" width="9.1" height="19.19" style="fill: rgb(224, 224, 224); transform-origin: 140.12px 266.695px;" id="el8dh0dgcig9g" class="animable"></rect><path d="M168.11,283.82c0,.2-12,.36-26.88.36s-26.88-.16-26.88-.36,12-.37,26.88-.37S168.11,283.61,168.11,283.82Z" style="fill: rgb(224, 224, 224); transform-origin: 141.23px 283.815px;" id="elhe61mq3r1e" class="animable"></path><rect x="135.57" y="295.37" width="9.1" height="19.19" style="fill: rgb(224, 224, 224); transform-origin: 140.12px 304.965px;" id="elf2wf7g738za" class="animable"></rect><rect x="135.57" y="334.16" width="9.1" height="19.19" style="fill: rgb(224, 224, 224); transform-origin: 140.12px 343.755px;" id="el4pru00rwbbf" class="animable"></rect><path d="M168.11,322.1c0,.2-12,.36-26.88.36s-26.88-.16-26.88-.36,12-.37,26.88-.37S168.11,321.89,168.11,322.1Z" style="fill: rgb(224, 224, 224); transform-origin: 141.23px 322.095px;" id="elj781xl9trhm" class="animable"></path><rect x="81.35" y="141.05" width="9.1" height="19.19" style="fill: rgb(250, 250, 250); transform-origin: 85.9px 150.645px;" id="elsm9fu9aorg" class="animable"></rect><path d="M113.88,167.78c0,.2-12,.36-26.87.36s-26.88-.16-26.88-.36,12-.37,26.88-.37S113.88,167.57,113.88,167.78Z" style="fill: rgb(224, 224, 224); transform-origin: 87.005px 167.775px;" id="elfain57qh1do" class="animable"></path><rect x="81.35" y="179.73" width="9.1" height="19.19" style="fill: rgb(250, 250, 250); transform-origin: 85.9px 189.325px;" id="elvh598v1maq" class="animable"></rect><path d="M113.88,206.46c0,.2-12,.36-26.87.36s-26.88-.16-26.88-.36,12-.37,26.88-.37S113.88,206.25,113.88,206.46Z" style="fill: rgb(224, 224, 224); transform-origin: 87.005px 206.455px;" id="el01a4euvnc9vt" class="animable"></path><rect x="81.35" y="218.42" width="9.1" height="19.19" style="fill: rgb(250, 250, 250); transform-origin: 85.9px 228.015px;" id="el02nygxrc0asl" class="animable"></rect><path d="M113.88,245.14c0,.2-12,.36-26.87.36s-26.88-.16-26.88-.36,12-.37,26.88-.37S113.88,244.93,113.88,245.14Z" style="fill: rgb(224, 224, 224); transform-origin: 87.005px 245.135px;" id="elgxh6zgj14bw" class="animable"></path><rect x="81.35" y="257.1" width="9.1" height="19.19" style="fill: rgb(250, 250, 250); transform-origin: 85.9px 266.695px;" id="el786u6p4qbrt" class="animable"></rect><path d="M113.88,283.82c0,.2-12,.36-26.87.36s-26.88-.16-26.88-.36,12-.37,26.88-.37S113.88,283.61,113.88,283.82Z" style="fill: rgb(224, 224, 224); transform-origin: 87.005px 283.815px;" id="el6g0d0kqs21f" class="animable"></path><rect x="81.35" y="295.78" width="9.1" height="19.19" style="fill: rgb(250, 250, 250); transform-origin: 85.9px 305.375px;" id="eltvkjcm143hp" class="animable"></rect><path d="M113.88,322.5c0,.2-12,.36-26.87.36s-26.88-.16-26.88-.36,12-.37,26.88-.37S113.88,322.29,113.88,322.5Z" style="fill: rgb(224, 224, 224); transform-origin: 87.005px 322.495px;" id="el7613q9kck5p" class="animable"></path><rect x="81.35" y="334.46" width="9.1" height="19.19" style="fill: rgb(250, 250, 250); transform-origin: 85.9px 344.055px;" id="el4yklktuoznr" class="animable"></rect><rect x="143.67" y="318.2" width="117.72" height="155.27" style="fill: rgb(235, 235, 235); transform-origin: 202.53px 395.835px;" id="el13hmc95vf839" class="animable"></rect><rect x="206.2" y="318.2" width="55.2" height="155.27" style="fill: rgb(224, 224, 224); transform-origin: 233.8px 395.835px;" id="elusj565t6j7" class="animable"></rect><rect x="168.36" y="339.22" width="10.58" height="25.72" style="fill: rgb(245, 245, 245); transform-origin: 173.65px 352.08px;" id="elhtfdipv85mh" class="animable"></rect><rect x="168.36" y="439.87" width="10.58" height="25.72" style="fill: rgb(245, 245, 245); transform-origin: 173.65px 452.73px;" id="el7s2ewacx184" class="animable"></rect><path d="M206.2,375c0,.29-14,.53-31.26.53s-31.27-.24-31.27-.53,14-.52,31.27-.52S206.2,374.74,206.2,375Z" style="fill: rgb(245, 245, 245); transform-origin: 174.935px 375.005px;" id="el8c3uyqesagh" class="animable"></path><rect x="168.36" y="389.93" width="10.58" height="25.72" style="fill: rgb(245, 245, 245); transform-origin: 173.65px 402.79px;" id="el9a2jkxjtzag" class="animable"></rect><path d="M206.2,425.74c0,.29-14,.52-31.26.52s-31.27-.23-31.27-.52,14-.53,31.27-.53S206.2,425.45,206.2,425.74Z" style="fill: rgb(245, 245, 245); transform-origin: 174.935px 425.735px;" id="el247o3erh2a" class="animable"></path><rect x="217.92" y="339.22" width="10.58" height="25.72" style="fill: rgb(245, 245, 245); transform-origin: 223.21px 352.08px;" id="el04we0tt9etkv" class="animable"></rect><rect x="240.88" y="339.22" width="10.58" height="25.72" style="fill: rgb(245, 245, 245); transform-origin: 246.17px 352.08px;" id="elxel0mloci2e" class="animable"></rect><rect x="217.92" y="388.02" width="10.58" height="25.72" style="fill: rgb(245, 245, 245); transform-origin: 223.21px 400.88px;" id="el3xjfvvvskab" class="animable"></rect><rect x="240.88" y="388.02" width="10.58" height="25.72" style="fill: rgb(245, 245, 245); transform-origin: 246.17px 400.88px;" id="el6ewsp8icm44" class="animable"></rect><rect x="217.92" y="436.82" width="10.58" height="25.72" style="fill: rgb(245, 245, 245); transform-origin: 223.21px 449.68px;" id="elmemslzntgu" class="animable"></rect><rect x="240.88" y="436.82" width="10.58" height="25.72" style="fill: rgb(245, 245, 245); transform-origin: 246.17px 449.68px;" id="el0rqxpc8it4sq" class="animable"></rect><rect x="134.82" y="312.8" width="128.08" height="5.6" style="fill: rgb(224, 224, 224); transform-origin: 198.86px 315.6px;" id="elbuk74d9zpll" class="animable"></rect><path d="M262.21,318.92c0,.29-26.31.53-58.76.53s-58.76-.24-58.76-.53,26.3-.52,58.76-.52S262.21,318.64,262.21,318.92Z" style="fill: rgb(235, 235, 235); transform-origin: 203.45px 318.925px;" id="elv985rk3d04" class="animable"></path><polygon points="141.19 473.5 22.54 473.5 22.02 285.97 140.68 285.97 141.19 473.5" style="fill: rgb(235, 235, 235); transform-origin: 81.605px 379.735px;" id="el35a6pll3m7d" class="animable"></polygon><rect x="81.35" y="285.97" width="59.33" height="187.53" style="fill: rgb(224, 224, 224); transform-origin: 111.015px 379.735px;" id="elxvveke41f7" class="animable"></rect><rect x="35.57" y="249.05" width="41.9" height="36.92" style="fill: rgb(235, 235, 235); transform-origin: 56.52px 267.51px;" id="elqo2af8tdrd" class="animable"></rect><rect x="67.48" y="249.05" width="9.99" height="36.92" style="fill: rgb(224, 224, 224); transform-origin: 72.475px 267.51px;" id="el5o67x9lsccf" class="animable"></rect><rect x="12.13" y="283.81" width="132.02" height="2.15" style="fill: rgb(224, 224, 224); transform-origin: 78.14px 284.885px;" id="elhedhkq90ycv" class="animable"></rect><rect x="45.44" y="302.07" width="10.04" height="21.18" style="fill: rgb(255, 255, 255); transform-origin: 50.46px 312.66px;" id="el4dt950bme88" class="animable"></rect><path d="M81.35,331.56c0,.22-13.29.4-29.67.4S22,331.78,22,331.56s13.28-.41,29.66-.41S81.35,331.33,81.35,331.56Z" style="fill: rgb(224, 224, 224); transform-origin: 51.675px 331.555px;" id="ela7d37xdf8r9" class="animable"></path><rect x="105.28" y="302.07" width="10.04" height="21.18" style="fill: rgb(245, 245, 245); transform-origin: 110.3px 312.66px;" id="el2c9gfae4c1t" class="animable"></rect><path d="M141.19,331.56c0,.22-13.28.4-29.66.4s-29.67-.18-29.67-.4,13.28-.41,29.67-.41S141.19,331.33,141.19,331.56Z" style="fill: rgb(235, 235, 235); transform-origin: 111.525px 331.555px;" id="elmbirvve3929" class="animable"></path><rect x="105.28" y="344.11" width="10.04" height="21.18" style="fill: rgb(245, 245, 245); transform-origin: 110.3px 354.7px;" id="elzpoq0jxcgiq" class="animable"></rect><path d="M141.19,373.6c0,.23-13.28.41-29.66.41s-29.67-.18-29.67-.41,13.28-.4,29.67-.4S141.19,373.38,141.19,373.6Z" style="fill: rgb(235, 235, 235); transform-origin: 111.525px 373.605px;" id="el556dc1kph9y" class="animable"></path><rect x="105.28" y="387.43" width="10.04" height="21.18" style="fill: rgb(245, 245, 245); transform-origin: 110.3px 398.02px;" id="els6j9dyrz3aa" class="animable"></rect><path d="M141.19,416.92c0,.22-13.28.4-29.66.4s-29.67-.18-29.67-.4,13.28-.4,29.67-.4S141.19,416.7,141.19,416.92Z" style="fill: rgb(235, 235, 235); transform-origin: 111.525px 416.92px;" id="elj0plquscnqf" class="animable"></path><rect x="105.28" y="430.75" width="10.04" height="21.18" style="fill: rgb(245, 245, 245); transform-origin: 110.3px 441.34px;" id="elzoeyltoxy4" class="animable"></rect><path d="M141.19,460.24c0,.22-13.28.4-29.66.4s-29.67-.18-29.67-.4,13.28-.41,29.67-.41S141.19,460,141.19,460.24Z" style="fill: rgb(235, 235, 235); transform-origin: 111.525px 460.235px;" id="elzmdnsoakfz8" class="animable"></path><rect x="45.44" y="344.76" width="10.04" height="21.18" style="fill: rgb(255, 255, 255); transform-origin: 50.46px 355.35px;" id="el3nfi4vm4vcb" class="animable"></rect><path d="M81.35,374.25c0,.22-13.29.4-29.67.4S22,374.47,22,374.25s13.28-.41,29.66-.41S81.35,374,81.35,374.25Z" style="fill: rgb(224, 224, 224); transform-origin: 51.675px 374.245px;" id="elkevmvuz186e" class="animable"></path><rect x="45.44" y="387.45" width="10.04" height="21.18" style="fill: rgb(255, 255, 255); transform-origin: 50.46px 398.04px;" id="el80aqr23tc97" class="animable"></rect><path d="M81.35,416.93c0,.23-13.29.41-29.67.41S22,417.16,22,416.93s13.28-.4,29.66-.4S81.35,416.71,81.35,416.93Z" style="fill: rgb(224, 224, 224); transform-origin: 51.675px 416.935px;" id="elehiuac4r3xa" class="animable"></path><rect x="45.44" y="430.13" width="10.04" height="21.18" style="fill: rgb(255, 255, 255); transform-origin: 50.46px 440.72px;" id="elrg2rtmbr9hj" class="animable"></rect><path d="M81.35,459.62c0,.23-13.29.41-29.67.41S22,459.85,22,459.62s13.28-.4,29.66-.4S81.35,459.4,81.35,459.62Z" style="fill: rgb(224, 224, 224); transform-origin: 51.675px 459.625px;" id="el5wjulprci2k" class="animable"></path><polygon points="474.59 386.65 436.55 267.7 399.7 383.65 412.69 378.74 384.93 448.43 403.22 440.76 395.2 473.84 484.81 474.07 473.79 438.59 483.27 449.67 459.13 380.18 474.59 386.65" style="fill: rgb(235, 235, 235); transform-origin: 434.87px 370.885px;" id="elw8te7l0vat" class="animable"></polygon><polygon points="373.39 371.77 329.13 233.36 286.26 368.27 301.38 362.56 269.08 443.64 290.35 434.72 281.02 473.2 385.28 473.47 372.46 432.19 383.49 445.08 355.41 364.23 373.39 371.77" style="fill: rgb(224, 224, 224); transform-origin: 327.18px 353.415px;" id="ela0hbu1xuipo" class="animable"></polygon><polygon points="415.48 407.04 394.65 319.78 362 400.85 371.57 398.03 347.92 446.45 361.44 441.94 345.11 473.47 418.3 473.47 412.1 444.19 418.3 452.64 404.76 401.57 415.48 407.04" style="fill: rgb(245, 245, 245); transform-origin: 381.705px 396.625px;" id="el09rsm1211v0a" class="animable"></polygon><path d="M262.91,10.46c.14,0,.26,104.32.26,233s-.12,233-.26,233-.26-104.3-.26-233S262.76,10.46,262.91,10.46Z" style="fill: rgb(224, 224, 224); transform-origin: 262.91px 243.46px;" id="eliftxp25glo9" class="animable"></path><path d="M374.13,63.17c.59-4.28-5.45-7.8-10-8.17-2.16-.17-4.41.16-6.46-.55-4.44-1.55-6.21-7.29-10.54-9.12-3.24-1.36-7-.14-10.11,1.44s-6.24,3.56-9.75,3.79c-3,.19-6.37-.94-9,.55-2,1.11-3,3.41-4.86,4.76s-4.14,1.6-6.36,1.72-4.53.15-6.56,1.08-3.7,3.07-3.28,5.26Z" style="fill: rgb(235, 235, 235); transform-origin: 335.658px 54.3363px;" id="elugu95irwrqa" class="animable"></path><path d="M478.74,111.5c.59-4.28-5.45-7.8-10-8.16-2.17-.18-4.41.15-6.46-.56-4.44-1.55-6.22-7.28-10.55-9.11-3.24-1.37-7-.15-10.11,1.43s-6.24,3.57-9.75,3.79c-3.05.2-6.36-.93-9,.56-2,1.11-3,3.4-4.87,4.75s-4.13,1.61-6.36,1.73-4.53.14-6.56,1.07-3.7,3.07-3.28,5.26Z" style="fill: rgb(235, 235, 235); transform-origin: 440.257px 102.668px;" id="elykjrbtx1fle" class="animable"></path><path d="M355.16,184.26c.59-4.27-5.45-7.79-10-8.16-2.16-.17-4.41.16-6.46-.56-4.44-1.54-6.21-7.28-10.55-9.11-3.24-1.36-7-.15-10.11,1.43s-6.24,3.57-9.75,3.8c-3.05.19-6.36-.94-9,.55-2,1.11-3,3.4-4.87,4.76s-4.13,1.6-6.36,1.72-4.53.14-6.55,1.07-3.71,3.07-3.29,5.26Z" style="fill: rgb(235, 235, 235); transform-origin: 316.678px 175.43px;" id="el35iuzji6z78" class="animable"></path></g><g id="freepik--Floor--inject-98" class="animable" style="transform-origin: 250px 473.47px;"><path d="M482.85,473.47c0,.14-104.26.26-232.84.26s-232.86-.12-232.86-.26,104.23-.26,232.86-.26S482.85,473.33,482.85,473.47Z" style="fill: rgb(38, 50, 56); transform-origin: 250px 473.47px;" id="el7hr2o74zu2c" class="animable"></path></g><g id="freepik--character-2--inject-98" class="animable" style="transform-origin: 399.183px 270.38px;"><ellipse cx="369.46" cy="244.81" rx="30.21" ry="184.01" style="fill: rgb(0, 255, 136); transform-origin: 369.46px 244.81px;" id="el24drhg7muhb" class="animable"></ellipse><g id="el6v17ay0is4m"><g style="opacity: 0.2; transform-origin: 364.472px 117.872px;" class="animable"><path d="M378.26,84.58a9.79,9.79,0,0,0-11.36-4.65c-5.38,1.66-8.26,7.57-9.25,13.11s-.78,11.37-2.88,16.6c-1.14,2.86-3,5.79-2.29,8.79.31,1.29,1.08,2.43,1.38,3.72a11.07,11.07,0,0,1-.2,4.54q-2,11.13-3,22.4a28.13,28.13,0,0,0-.32,5.42,1.87,1.87,0,0,0,3.45.83,3.53,3.53,0,0,0,.43-1.05,11.84,11.84,0,0,0-.41-4.64,23.06,23.06,0,0,1,1.59-13.59,9.27,9.27,0,0,0,1.26-4c0-1-.46-2-.47-3,0-2.5,2.42-4.48,2.51-7a11.42,11.42,0,0,0-.72-3.37,11.78,11.78,0,0,1,1.25-8.93c.78-1.31,1.87-2.63,1.68-4.14-.13-1-.8-1.84-1-2.82-.61-3.49,4.64-4.89,6.25-8,1.05-2.09.58-5.11,2.57-6.34,2.74-1.69,6.94,2.18,9.2-.47A3.1,3.1,0,0,0,378.26,84.58Z" id="el3cuqhiozbgx" class="animable" style="transform-origin: 364.472px 117.872px;"></path></g></g><g id="el6ln7s2wj3z"><g style="opacity: 0.2; transform-origin: 382.617px 102.616px;" class="animable"><path d="M384.56,101.84a3.15,3.15,0,0,1-.19-1,8.54,8.54,0,0,1,.46-1.6,2.5,2.5,0,0,0-1.34-2.24,2.19,2.19,0,0,0-2.42.21h0c-.9.22-1.05,1.47-.69,2.32a12.16,12.16,0,0,1,1.2,2.46,10.87,10.87,0,0,1,0,1.71,8.34,8.34,0,0,0,1,3.53c.27.6.69,1.3,1.35,1.27.84,0,1.09-1.16,1.09-2A16.83,16.83,0,0,0,384.56,101.84Z" id="elxd1c5lx1yzc" class="animable" style="transform-origin: 382.617px 102.616px;"></path></g></g><g id="elmw6gsw42tpq"><g style="opacity: 0.3; transform-origin: 368.402px 252.815px;" class="animable"><path d="M376.58,217.8q-1.27-17.34-1.69-34.73c-.26-11,5.82-21,5.83-32,0-10.29,0-26.54,0-36.83l-4.08-10.9a4.48,4.48,0,0,0-6.9-2c-2.14,1.66-4.22,4.69-6.71,8.7a9.93,9.93,0,0,0-1.43,4.15c-1.12,11.22,2.47,22.68.24,33.74-.94,4.7-2.92,9.17-3.53,13.93-1.17,9.08,2.72,18.41.67,27.33-1,4.2-3.22,8.1-3.51,12.4-.52,7.49,5,14.5,4.17,22-.3,2.73-1.43,5.29-2.05,8-1,4.39-.64,9-.26,13.47q1.09,12.93,2.2,25.87a58.54,58.54,0,0,1,.25,10.91c-.62,6-3.05,11.71-3.83,17.7-2.82,21.44-6.23,38.8,1.41,60.1,6,16.67-1.93,23.84,11.9,45.54.54.85,8.58-26.53,9.82-26.62a2,2,0,0,0,1.77-1.6,122.2,122.2,0,0,0-2.57-65.31,17.71,17.71,0,0,1-1.23-5.88c.06-2,.84-3.9,1.29-5.85,2.45-10.57-4.84-21.43-3.06-32.13.84-5.1,3.69-9.67,4.68-14.74,1.25-6.42-.55-13-1.66-19.41C377.42,228.35,377,223.07,376.58,217.8Z" id="el5uygn4bgre" class="animable" style="transform-origin: 368.402px 252.815px;"></path></g></g><path d="M378.88,185.61c-.06.07-.52-.36-1.38-.75a4.48,4.48,0,0,0-1.6-.38,5.27,5.27,0,0,0-2,.19,3,3,0,0,0-1.49,1.21,10.89,10.89,0,0,0-.9,1.44,12.67,12.67,0,0,1-.7,1.42,3.15,3.15,0,0,1,.36-1.58,9,9,0,0,1,.84-1.55,3.39,3.39,0,0,1,1.72-1.43,5.22,5.22,0,0,1,3.92.35C378.56,185.05,378.92,185.58,378.88,185.61Z" style="fill: rgb(38, 50, 56); transform-origin: 374.845px 186.345px;" id="eldllbmv8we4v" class="animable"></path><g id="elhhuiwp8799"><g style="opacity: 0.2; transform-origin: 388.189px 335.768px;" class="animable"><path d="M391.11,333.6a25.88,25.88,0,0,1-.59-5.54c.08-1.71.54-3.39.58-5.1.07-3.6-1.75-7-1.63-10.65.13-3.93,2.56-7.92,1.13-11.6a3.23,3.23,0,0,0-1.11-1.55c-1.44-1-3.54.09-4.25,1.68s-.44,3.42-.15,5.13a10.58,10.58,0,0,1,.13,4.44c-1.7,3.4-1.22,7.67-.22,11.44,1.12,4.22,2.79,8.49,2.25,12.83-.3,2.35-1.24,4.6-1.43,7-.38,4.51,2,8.9,1.72,13.42-.19,3.21-1.69,6.19-2.22,9.36s.35,7.05,3.31,8.3A86.92,86.92,0,0,0,391.11,333.6Z" id="elxk3box9zdr" class="animable" style="transform-origin: 388.189px 335.768px;"></path></g></g><g id="el85w3pzfkvpn"><g style="opacity: 0.2; transform-origin: 350.045px 245.675px;" class="animable"><path d="M351.67,260.82c.05-5.33,2.89-10.51,2.11-15.79-.56-3.76-2.94-7.27-2.51-11.05.28-2.45,1.74-4.73,1.61-7.2s-1.83-4.63-2-7.09c-.11-1.55.39-3.08.46-4.63s-.49-3.33-1.93-3.91l-.4.9c-1.49,4.82-3,9.9-1.93,14.83a22.33,22.33,0,0,1,.86,4.32c0,2.59-1.52,5-1.6,7.56s1.21,4.77,1.91,7.15c3.11,10.67-5.55,22.93-.4,32.78.42.79,1.13,1.65,2,1.49a2,2,0,0,0,1.05-.68c2.21-2.35,2.53-5.91,2.13-9.11S351.65,264.05,351.67,260.82Z" id="el5i1f2izow5l" class="animable" style="transform-origin: 350.045px 245.675px;"></path></g></g><path d="M394,261.25l1.19.61a.23.23,0,0,1,0,.39l-1.16.67a.2.2,0,0,0-.09.09l-.61,1.19a.23.23,0,0,1-.39,0l-.67-1.16a.2.2,0,0,0-.09-.09l-1.19-.61a.22.22,0,0,1,0-.39l1.15-.67a.2.2,0,0,0,.09-.09l.61-1.19a.23.23,0,0,1,.39,0l.67,1.16A.2.2,0,0,0,394,261.25Z" style="fill: rgb(255, 255, 255); transform-origin: 393.085px 262.1px;" id="eleufhvsmz8ma" class="animable"></path><path d="M347.93,294.9l1.19.61a.23.23,0,0,1,0,.39l-1.16.67a.2.2,0,0,0-.09.09l-.61,1.19a.22.22,0,0,1-.39,0l-.67-1.15a.2.2,0,0,0-.09-.09l-1.19-.61a.23.23,0,0,1,0-.39l1.16-.67a.2.2,0,0,0,.09-.09l.61-1.19a.23.23,0,0,1,.39,0l.67,1.16A.2.2,0,0,0,347.93,294.9Z" style="fill: rgb(255, 255, 255); transform-origin: 347.02px 295.76px;" id="ell97t3xol8ce" class="animable"></path><path d="M386.42,106.34a5.34,5.34,0,0,1,6-1.38,7.28,7.28,0,0,1,8.71,2.25,6.58,6.58,0,0,1,6.26,1.37,6.65,6.65,0,0,1,2,6.1,5.56,5.56,0,0,1,4.85,4.11,5.62,5.62,0,0,1-2.37,5.94,5.25,5.25,0,0,1-4.5,9.42l-21.5-21.62A5.38,5.38,0,0,1,386.42,106.34Z" style="fill: rgb(38, 50, 56); transform-origin: 399.761px 119.398px;" id="elh9vriycyt78" class="animable"></path><path d="M408,135a22.2,22.2,0,0,0-16.73-25l-1.12-.26c-12.19-2.16-15.06,8-16.9,20.31l-1.39,45.22h0l3.35,21.15,8.61-11,4.26-11.69s12,.94,14.9-10.65C404.4,157.47,406.36,145.71,408,135Z" style="fill: rgb(255, 191, 157); transform-origin: 390.062px 152.934px;" id="elku415l5q8rm" class="animable"></path><path d="M388.19,173.73a28.72,28.72,0,0,1-14.09-8.06s1.08,9.43,12.87,11.13Z" style="fill: rgb(255, 154, 108); transform-origin: 381.145px 171.235px;" id="el32injkpklc4" class="animable"></path><path d="M402.1,145a1.7,1.7,0,0,1-2,1.3,1.63,1.63,0,0,1-1.35-1.9,1.7,1.7,0,0,1,2-1.3A1.64,1.64,0,0,1,402.1,145Z" style="fill: rgb(38, 50, 56); transform-origin: 400.424px 144.7px;" id="elui1spxm759q" class="animable"></path><path d="M404.16,140.76c-.26.17-1.29-1.06-3.06-1.48s-3.3.17-3.44-.1.23-.46.9-.74a4.71,4.71,0,0,1,2.81-.19,4.46,4.46,0,0,1,2.38,1.45C404.19,140.25,404.28,140.69,404.16,140.76Z" style="fill: rgb(38, 50, 56); transform-origin: 400.92px 139.448px;" id="el3hj9gr4md9" class="animable"></path><path d="M386.69,142.16a1.7,1.7,0,0,1-2,1.29,1.63,1.63,0,0,1-1.35-1.9,1.72,1.72,0,0,1,2-1.3A1.63,1.63,0,0,1,386.69,142.16Z" style="fill: rgb(38, 50, 56); transform-origin: 385.016px 141.852px;" id="el4oym5guc21e" class="animable"></path><path d="M387.22,136.47c-.25.17-1.28-1.06-3.06-1.48s-3.29.17-3.43-.1c-.07-.12.23-.46.89-.74a4.66,4.66,0,0,1,2.82-.19,4.47,4.47,0,0,1,2.37,1.45C387.25,136,387.35,136.4,387.22,136.47Z" style="fill: rgb(38, 50, 56); transform-origin: 383.996px 135.156px;" id="elqn5obxzpgw" class="animable"></path><path d="M389.92,151.1a12.24,12.24,0,0,1,3,.17c.47.06.92.07,1.07-.23a2.46,2.46,0,0,0,0-1.42c-.17-1.21-.34-2.47-.52-3.79-.68-5.39-1.06-9.78-.85-9.81s1,4.32,1.64,9.71c.15,1.33.31,2.59.45,3.8a2.75,2.75,0,0,1-.19,1.85,1.18,1.18,0,0,1-.91.49,3.1,3.1,0,0,1-.79-.08A11.54,11.54,0,0,1,389.92,151.1Z" style="fill: rgb(38, 50, 56); transform-origin: 392.355px 143.946px;" id="elrad2f63xtp" class="animable"></path><path d="M384.4,151.1c.29.05-.16,2,1.16,3.76s3.42,2,3.38,2.32c0,.12-.55.26-1.43.08a4.89,4.89,0,0,1-2.84-1.83,4.32,4.32,0,0,1-.85-3.12C383.94,151.48,384.27,151.05,384.4,151.1Z" style="fill: rgb(38, 50, 56); transform-origin: 386.365px 154.221px;" id="el2u9ayhfvt13" class="animable"></path><path d="M388.46,131.37c-.32.41-1.75-.37-3.62-.78s-3.51-.39-3.59-.9c0-.24.38-.58,1.13-.82a5.56,5.56,0,0,1,2.93-.08,5.43,5.43,0,0,1,2.56,1.35C388.41,130.68,388.61,131.17,388.46,131.37Z" style="fill: rgb(38, 50, 56); transform-origin: 384.879px 130.059px;" id="elr63bx90wdg" class="animable"></path><path d="M404.92,135.76c-.38.37-1.56-.25-3.05-.5s-2.8-.14-3-.61c-.09-.23.17-.62.78-.92a4.45,4.45,0,0,1,4.9.9C405,135.13,405.09,135.59,404.92,135.76Z" style="fill: rgb(38, 50, 56); transform-origin: 401.926px 134.616px;" id="el8awfapp1hfs" class="animable"></path><path d="M377.23,109.43c6.69-2.9,14.51-1.13,19.67.66s13.92,10.35,11.27,19.35c0,0-1.32-8-4.41-10.53-3.73-3.06-6.66,1.17-10.42-.92s-7.32-5-12.18-2.87c-5.32,2.35-3.79,5.26-5.29,10.35-.7,2.35-2.29,5-2.95,6.92l.91-21.82Z" style="fill: rgb(38, 50, 56); transform-origin: 390.789px 120.141px;" id="elvqexbkjx7un" class="animable"></path><path d="M405.23,116.31a5.25,5.25,0,0,0-5.57-3.39,7.12,7.12,0,0,0-12.43-4.38,7.34,7.34,0,0,0-5.9-3.16c-2.32,0-5.88,2.18-7.23,4.08l-.67,18.41a2.65,2.65,0,0,0,3.29-1.15c.23-.53.25-1.2.71-1.54s1.31-.06,2,.17a5.19,5.19,0,0,0,6.1-2.4,2.17,2.17,0,0,0,2.78,1,11.67,11.67,0,0,0,2.7-1.8,3.32,3.32,0,0,1,3-.72c.56.22,1,.7,1.62.79,1.07.15,1.86-1,2.27-2s.81-2.18,1.82-2.53,1.93.22,2.85.59,2.21.44,2.67-.44A1.94,1.94,0,0,0,405.23,116.31Z" style="fill: rgb(38, 50, 56); transform-origin: 389.411px 116.72px;" id="el9143jrezo4l" class="animable"></path><path d="M385.38,106.63s.2.11.51.34a2.74,2.74,0,0,1,1,1.34l.06.18.14-.13a10.2,10.2,0,0,1,4.57-2.2,7.86,7.86,0,0,1,3.27,0A6.62,6.62,0,0,1,398,108a6.72,6.72,0,0,1,1.54,2.38,5.58,5.58,0,0,1,.3,2.6l0,.26h.26a4.53,4.53,0,0,1,3.19,1.18,4.44,4.44,0,0,1,1.33,2.37,6.27,6.27,0,0,1-.06,2.47,2.09,2.09,0,0,0,.25-.63,4.46,4.46,0,0,0,.07-1.89,4.58,4.58,0,0,0-1.35-2.58,4.85,4.85,0,0,0-3.45-1.36l.22.25a5.85,5.85,0,0,0-.29-2.82,7.08,7.08,0,0,0-5-4.42,8,8,0,0,0-3.45,0,9.88,9.88,0,0,0-4.65,2.41l.2.06a2.71,2.71,0,0,0-1.14-1.37C385.61,106.65,385.39,106.61,385.38,106.63Z" style="fill: rgb(69, 90, 100); transform-origin: 395.165px 112.441px;" id="elkx6s75cv01p" class="animable"></path><path d="M454.92,201.5l-.93-7.9,4.47-5.48s4.81-2.72,5.42-3.52a2,2,0,0,1,.52,2.08s1.55-2,2.58-1.86,1.72,1.88,2,3.12A8,8,0,0,1,471,189.3a4.15,4.15,0,0,1,1.26,2.11L472,193a1.94,1.94,0,0,1,1.93,1,5.73,5.73,0,0,1,.37,2.94s1.23-.68,1.82.31a2.68,2.68,0,0,1,.49,2.43c-.26.84-4.22,7.48-5.58,8.51s-12.67,9.9-12.67,9.9l-9.81-10.29Z" style="fill: rgb(255, 191, 157); transform-origin: 462.633px 201.345px;" id="elgs8zz6gehou" class="animable"></path><path d="M475.15,200a7.74,7.74,0,0,1-1.7,1.92,17.8,17.8,0,0,1-2.21,1.7,2.72,2.72,0,0,1-1.65.59,1.88,1.88,0,0,1-1.6-1.07,2,2,0,0,1,.13-1.91,4.82,4.82,0,0,1,1.22-1.21,23.89,23.89,0,0,1,2.3-1.55,8.92,8.92,0,0,1,2.3-1.13,25.39,25.39,0,0,1-2.11,1.43c-.64.44-1.4,1-2.21,1.62a4.3,4.3,0,0,0-1.07,1.1,1.48,1.48,0,0,0-.1,1.44,1.4,1.4,0,0,0,1.17.79,2.34,2.34,0,0,0,1.37-.49,21.06,21.06,0,0,0,2.23-1.59C474.43,200.68,475.09,200,475.15,200Z" style="fill: rgb(255, 154, 108); transform-origin: 471.479px 200.775px;" id="elufsispkyhm" class="animable"></path><path d="M469.27,188.06c.05.07-.77.76-2,2a29.44,29.44,0,0,0-2,2.27c-.36.45-.71.92-1.07,1.43A2.87,2.87,0,0,1,462.6,195a1.43,1.43,0,0,1-1.13-.21,1.76,1.76,0,0,1-.65-.86A2.5,2.5,0,0,1,461,192a9.64,9.64,0,0,1,.85-1.43l.8-1.17a14.57,14.57,0,0,1,1.68-2.25,17.22,17.22,0,0,1-1.38,2.45c-.43.74-1.07,1.6-1.53,2.58a2,2,0,0,0-.1,1.57,1.07,1.07,0,0,0,1.22.76,2.42,2.42,0,0,0,1.34-1.06c.36-.5.74-1,1.1-1.43a23.43,23.43,0,0,1,2.11-2.23A10.34,10.34,0,0,1,469.27,188.06Z" style="fill: rgb(255, 154, 108); transform-origin: 464.988px 191.094px;" id="elgcaahgzyt9m" class="animable"></path><path d="M471.58,192.61c0,.06-.58.57-1.47,1.51a20.29,20.29,0,0,1-3.78,3.45,10,10,0,0,1-1.25.82,1.26,1.26,0,0,1-.82.12,2.1,2.1,0,0,1-.67-.33,1.64,1.64,0,0,1-.52-.5,2.34,2.34,0,0,1-.27-.58,2.82,2.82,0,0,1-.12-1.13,2.73,2.73,0,0,1,.57-1.49c.23-.3.42-.4.44-.38A3.78,3.78,0,0,0,463,196a2.41,2.41,0,0,0,.16,1,2.16,2.16,0,0,0,.24.48,1.26,1.26,0,0,0,.4.35,2,2,0,0,0,.52.25.82.82,0,0,0,.51-.1,11.31,11.31,0,0,0,1.17-.78,28.06,28.06,0,0,0,3.82-3.29A5.79,5.79,0,0,1,471.58,192.61Z" style="fill: rgb(255, 154, 108); transform-origin: 467.123px 195.571px;" id="elhsv04o4nxmq" class="animable"></path><path d="M474.21,196.63a17.53,17.53,0,0,1-2.37,1.85l-2.66,1.9a6.85,6.85,0,0,1-1.71,1,2,2,0,0,1-1.15,0,1.43,1.43,0,0,1-.91-.82,2.31,2.31,0,0,1,.38-2.19,17.86,17.86,0,0,1,1.26-1.49,21.49,21.49,0,0,1,2.36-2.29,12.17,12.17,0,0,1,1.81-1.27A2.25,2.25,0,0,1,472,193c.05.07-1,.64-2.32,1.88a27,27,0,0,0-2.24,2.33c-.39.46-.84.95-1.2,1.46a1.83,1.83,0,0,0-.33,1.71,1.12,1.12,0,0,0,1.45.51,6.76,6.76,0,0,0,1.6-.92l2.71-1.81A17.33,17.33,0,0,1,474.21,196.63Z" style="fill: rgb(255, 154, 108); transform-origin: 469.748px 197.232px;" id="elovvzow49nhk" class="animable"></path><path d="M464.51,186.56c.17.06-.78,2.14-2.63,4.19a8.19,8.19,0,0,1-.71.73c-.11.11-.27.22-.36.31l-.12.11a.34.34,0,0,0,0,.12,8.44,8.44,0,0,1-.11,1.55c-.18.91-.46,1.41-.52,1.38a12.34,12.34,0,0,1,.16-1.42,13.27,13.27,0,0,0,0-1.57.63.63,0,0,1,.1-.31l.2-.22c.13-.12.23-.19.34-.31s.45-.46.67-.7a33.25,33.25,0,0,0,2.15-2.7C464.18,187,464.44,186.53,464.51,186.56Z" style="fill: rgb(255, 154, 108); transform-origin: 462.295px 190.755px;" id="ela3qzj2lfnfn" class="animable"></path><path d="M463.08,198.5c-.07,0-.21-.33-.58-.78a19.23,19.23,0,0,0-1.6-1.67A4.94,4.94,0,0,0,459,194.9c-.55-.17-.93-.15-.94-.22s.37-.22,1-.13a4.21,4.21,0,0,1,2.19,1.12,9.5,9.5,0,0,1,1.56,1.85C463.12,198.07,463.14,198.49,463.08,198.5Z" style="fill: rgb(255, 154, 108); transform-origin: 460.583px 196.511px;" id="eln0oeab8vm4b" class="animable"></path><path d="M398.26,193l-12.39-14,.39,17.39.67,23.21-21.78,25.47-1.93,9.37v13.2c7.43-10.76,21.47-30.84,22.64-35.59C388.19,222.54,398.86,194,398.26,193Z" style="fill: rgb(69, 90, 100); transform-origin: 380.752px 223.32px;" id="elclhmfdbrtl" class="animable"></path><path d="M430.28,217.06,400.6,198.79,398.26,193l-14.6,42.33s42.37,10.48,50.74,6.73,33-26,33-26l-15.14-14.17Z" style="fill: rgb(69, 90, 100); transform-origin: 425.53px 217.935px;" id="elsenna8amee8" class="animable"></path><path d="M386.13,179.44,380,187.58a124,124,0,0,0-7.77-12.31l-4.07,42.07-3,27.73,21.78-25.47Z" style="fill: rgb(224, 224, 224); transform-origin: 376.05px 210.17px;" id="elr5hqhr8gxmb" class="animable"></path><path d="M363.22,267.64a4.45,4.45,0,0,1,.39-.73c.28-.47.68-1.17,1.24-2,1.1-1.75,2.73-4.27,4.78-7.34,4.07-6.17,9.89-14.58,15.56-24.31.71-1.22,1.38-2.44,2-3.65s1.25-2.41,1.84-3.6,1.07-2.39,1.59-3.55a18,18,0,0,0,.65-1.77,16.81,16.81,0,0,0,.57-1.74,29,29,0,0,0,.91-6.8,55.76,55.76,0,0,0-.12-6c-.27-3.68-.72-6.64-1-8.69-.13-1-.24-1.76-.32-2.35a4.67,4.67,0,0,1-.08-.83,3.93,3.93,0,0,1,.2.81l.43,2.34c.36,2,.87,5,1.19,8.68a55.52,55.52,0,0,1,.21,6.07,29.78,29.78,0,0,1-.88,6.93,17.65,17.65,0,0,1-.57,1.79c-.22.59-.38,1.21-.65,1.8-.52,1.17-1,2.41-1.6,3.59s-1.17,2.43-1.84,3.63-1.32,2.44-2,3.66c-5.68,9.77-11.57,18.14-15.73,24.25L365,265c-.55.81-1,1.47-1.32,2A4.18,4.18,0,0,1,363.22,267.64Z" style="fill: rgb(38, 50, 56); transform-origin: 378.246px 230.96px;" id="ellpudygoex7" class="animable"></path><path d="M399.38,204.91a18.88,18.88,0,0,1-1.09,3.19c-.76,1.94-1.87,4.59-3.19,7.47s-2.59,5.46-3.56,7.3a17.44,17.44,0,0,1-1.7,2.91,19.65,19.65,0,0,1,1.31-3.1c1-2.06,2.12-4.57,3.4-7.36s2.41-5.32,3.34-7.39A19.9,19.9,0,0,1,399.38,204.91Z" style="fill: rgb(38, 50, 56); transform-origin: 394.61px 215.345px;" id="elcokre48j03d" class="animable"></path><path d="M433.23,230.17a28.43,28.43,0,0,1-1.43-5.58,28.25,28.25,0,0,1-.85-5.71c.17,0,.81,2.47,1.44,5.59S433.4,230.14,433.23,230.17Z" style="fill: rgb(38, 50, 56); transform-origin: 432.11px 224.525px;" id="elpv2995j2qr" class="animable"></path><path d="M435.84,228.94c-.18,0-.83-2.55-1.9-5.65s-2.15-5.55-2-5.63a19.18,19.18,0,0,1,2.56,5.43A19.39,19.39,0,0,1,435.84,228.94Z" style="fill: rgb(38, 50, 56); transform-origin: 433.883px 223.3px;" id="elq66k2zk3gbf" class="animable"></path><polygon points="381.82 185.71 378.67 185.61 378.67 185.61 377.32 188.25 378.14 191.22 381.24 191.62 383 187.92 381.82 185.71" style="fill: rgb(0, 255, 136); transform-origin: 380.16px 188.615px;" id="elnj1vhrfkave" class="animable"></polygon><path d="M377.74,188.63l-5.5-3.1s1.92-3.25,6.57,0Z" style="fill: rgb(0, 255, 136); transform-origin: 375.525px 186.358px;" id="elws9yfnegvs" class="animable"></path><path d="M386.13,188.49c.06,0,.1.51-.21,1.27a4.35,4.35,0,0,1-2.26,2.31l-.42.18v-.47c0-.34,0-.69,0-1.06-.16-3-1.59-5-1.43-5.13s.5.41,1,1.3a9.34,9.34,0,0,1,1.06,3.8,8.37,8.37,0,0,1,0,1.12l-.41-.29a4.52,4.52,0,0,0,2.15-1.92C386,188.94,386,188.48,386.13,188.49Z" style="fill: rgb(38, 50, 56); transform-origin: 383.985px 188.91px;" id="el516xc8dvjb" class="animable"></path><path d="M378.81,190.09a2.52,2.52,0,0,1,0,.58c0,.44-.12,1-.2,1.63-.2,1.41-.5,3.46-.91,6-.82,5-2.07,12-3.86,19.56A169.06,169.06,0,0,1,368.12,237c-.89,2.4-1.66,4.32-2.25,5.62l-.68,1.5a1.9,1.9,0,0,1-.27.5,2.15,2.15,0,0,1,.16-.55c.16-.42.35-.93.57-1.54.52-1.33,1.23-3.27,2.06-5.67,1.68-4.81,3.7-11.56,5.5-19.13s3.1-14.48,4-19.5c.45-2.44.82-4.44,1.09-5.94.13-.64.24-1.17.32-1.61S378.78,190.09,378.81,190.09Z" style="fill: rgb(38, 50, 56); transform-origin: 371.873px 217.355px;" id="elugw2kjrofin" class="animable"></path><g id="eldnw3qdku39d"><g style="opacity: 0.3; transform-origin: 374.711px 197.765px;" class="animable"><path d="M374.84,196.54c1.82-1.8,3-4.22,4.86-5.92,1.45,4.5-1.09,9.58-5,12.19l-5.39,2.1.8-7.5Z" id="ellp3akkr1w0n" class="animable" style="transform-origin: 374.711px 197.765px;"></path></g></g><path d="M377.3,188.16c.52,2-4.89,2.76-6.69,3.85l-.65,6.78c7.89-1.61,12-8.7,12-8.7Z" style="fill: rgb(0, 255, 136); transform-origin: 375.96px 193.475px;" id="ele9m7w4hprnu" class="animable"></path><path d="M386.93,236.14a2.44,2.44,0,0,1,.44.06l1.29.22,4.95.89,18.19,3.26c3.85.65,8.06,1.41,12.6,1.93a27.42,27.42,0,0,0,7,.13c2.38-.36,4.52-1.74,6.72-3.07a63.6,63.6,0,0,0,6.42-4.57c2.12-1.66,4.25-3.42,6.41-5.21,4.31-3.59,8.72-7.37,13.21-11.28l3-2.63v.45L452,202.14l.36,0-22,15.1-.13.09-.14-.08-21.56-13.4-5.93-3.73-1.54-1c-.35-.23-.52-.36-.52-.36s.19.09.55.3l1.58.93,6,3.61,21.68,13.22h-.27l21.93-15.17.19-.14.17.16,15.16,14.17.24.23-.25.22-3,2.63c-4.49,3.91-8.91,7.69-13.23,11.28-2.17,1.79-4.3,3.54-6.44,5.2a62.87,62.87,0,0,1-6.48,4.6c-2.19,1.32-4.41,2.74-6.92,3.12a27.92,27.92,0,0,1-7.16-.16c-4.58-.55-8.78-1.33-12.62-2-7.69-1.38-13.88-2.6-18.17-3.45l-4.92-1-1.28-.28A2.49,2.49,0,0,1,386.93,236.14Z" style="fill: rgb(38, 50, 56); transform-origin: 427.35px 221.019px;" id="elnqgan9sh5ea" class="animable"></path><path d="M340.7,424.36l-19.05,29,45.28,26.46c2.26-4.48-16.09-26.85-16.09-26.85l10.06-15.88Z" style="fill: rgb(69, 90, 100); transform-origin: 344.386px 452.09px;" id="elqvibiw60b1" class="animable"></path><path d="M338,442.81a2.16,2.16,0,0,0-2.52,1.36,2.08,2.08,0,0,0,1.33,2.51,2.26,2.26,0,0,0,2.65-1.46,2.13,2.13,0,0,0-1.67-2.45" style="fill: rgb(224, 224, 224); transform-origin: 337.449px 444.746px;" id="elf6l1uspee5u" class="animable"></path><path d="M321.65,453.35l2.19-3.85,42.57,27.11s1.49,2.07.43,3.35Z" style="fill: rgb(224, 224, 224); transform-origin: 344.435px 464.73px;" id="elkzyinokiwsq" class="animable"></path><path d="M351.71,453.15c-.14.22-1.3-.32-2.8-.25s-2.63.67-2.78.46.92-1.29,2.74-1.35S351.88,453,351.71,453.15Z" style="fill: rgb(224, 224, 224); transform-origin: 348.921px 452.706px;" id="el7mq1q7oxev" class="animable"></path><path d="M355.31,457.89c-.07.25-1.25.06-2.55.56s-2.09,1.36-2.3,1.22.37-1.47,2-2.06S355.43,457.68,355.31,457.89Z" style="fill: rgb(224, 224, 224); transform-origin: 352.868px 458.528px;" id="elba6q4hq8is5" class="animable"></path><path d="M354.69,465.16c-.23-.07.11-1.36,1.38-2.24s2.59-.76,2.58-.52-1,.52-2.07,1.25S354.92,465.26,354.69,465.16Z" style="fill: rgb(224, 224, 224); transform-origin: 356.637px 463.697px;" id="ely7pnjng1rpf" class="animable"></path><path d="M354.43,447.58c-.21.15-1.05-.75-2.35-1.39s-2.5-.82-2.5-1.08,1.39-.5,2.91.28S354.64,447.47,354.43,447.58Z" style="fill: rgb(224, 224, 224); transform-origin: 352.025px 446.228px;" id="elhwefplv09ta" class="animable"></path><path d="M356.49,441.58c-.05.09-1-.28-2.26-1.34a12,12,0,0,1-2-2.11,12.71,12.71,0,0,1-.89-1.45,3.17,3.17,0,0,1-.38-.94,1.12,1.12,0,0,1,.59-1.23,1.36,1.36,0,0,1,1.26.06,3.41,3.41,0,0,1,.78.61,9,9,0,0,1,1.13,1.31,9.17,9.17,0,0,1,1.29,2.59,4.46,4.46,0,0,1,.26,2.63c-.14,0-.25-1-.85-2.41a10.45,10.45,0,0,0-1.36-2.32,8.86,8.86,0,0,0-1.07-1.16c-.4-.41-.81-.65-1.06-.51-.09.06-.11.08-.09.28a2.37,2.37,0,0,0,.27.69,15.14,15.14,0,0,0,.8,1.38,14.27,14.27,0,0,0,1.7,2.12C355.75,440.9,356.57,441.46,356.49,441.58Z" style="fill: rgb(224, 224, 224); transform-origin: 353.716px 438.047px;" id="eld8f6yp1vbpb" class="animable"></path><path d="M356,441.73a4.12,4.12,0,0,1,.68-2.54,8.54,8.54,0,0,1,3.14-3.34,2.17,2.17,0,0,1,2.12-.3,1.21,1.21,0,0,1,.58,1.18,3.5,3.5,0,0,1-.26,1,5.75,5.75,0,0,1-.89,1.53,6.06,6.06,0,0,1-2.34,1.78c-1.57.65-2.64.38-2.62.29a20.88,20.88,0,0,0,2.35-.86,6,6,0,0,0,2-1.71,5.4,5.4,0,0,0,.73-1.34c.21-.52.25-1,0-1.07a1.46,1.46,0,0,0-1.22.28,8.82,8.82,0,0,0-1.28.9,9.11,9.11,0,0,0-1.77,2C356.41,440.8,356.16,441.77,356,441.73Z" style="fill: rgb(224, 224, 224); transform-origin: 359.26px 438.565px;" id="ele7ohl9rfeni" class="animable"></path><path d="M367.73,302c4.41,4.63,20.44,23.4,27.68,32.2,4.23,5.14,7.43,9.51,9.82,13a19.86,19.86,0,0,1,1.38,19.92c-2.94,5.94-6.51,12.95-8.36,15.78-4.7,7.17-40.18,64.48-40.18,64.48l-27.8-14.21s15.65-32.18,22.4-46.32c5.75-12.06,17.34-24.1,17.34-24.1a.9.9,0,0,0,0-1.19L364,354Z" style="fill: rgb(38, 50, 56); transform-origin: 369.462px 374.69px;" id="el9wr469wv1lq" class="animable"></path><path d="M426.1,248.27c0-2.88.51-5.21,1.12-5.21s1.13,2.33,1.13,5.21-.51,5.21-1.13,5.21S426.1,251.14,426.1,248.27Z" style="fill: rgb(235, 235, 235); transform-origin: 427.225px 248.27px;" id="el0mc9hifn0ke" class="animable"></path></g><g id="freepik--character-1--inject-98" class="animable" style="transform-origin: 118.535px 269.9px;"><path d="M65.4,226.52l1.44,7.82-4.1,5.76s-4.62,3-5.17,3.87a2,2,0,0,1-.66-2.05s-1.42,2.07-2.45,2-1.84-1.77-2.19-3a7.93,7.93,0,0,1-2.14-1.22,4.21,4.21,0,0,1-1.4-2l.19-1.61a1.92,1.92,0,0,1-2-.83,5.68,5.68,0,0,1-.57-2.9s-1.18.75-1.84-.2a2.66,2.66,0,0,1-.64-2.39c.21-.85,3.72-7.73,5-8.86s12-10.71,12-10.71l10.46,9.63Z" style="fill: rgb(255, 191, 157); transform-origin: 57.5673px 227.085px;" id="elbqrdrwbyi98" class="animable"></path><ellipse cx="187.84" cy="228.56" rx="30.89" ry="177.61" style="fill: rgb(0, 255, 136); transform-origin: 187.84px 228.56px;" id="elxt2trorgke" class="animable"></ellipse><g id="elcj6cw69scvp"><g style="opacity: 0.3; transform-origin: 187.023px 235.338px;" class="animable"><path d="M200.42,257.34A87.5,87.5,0,0,0,201.74,220c-.6-3.29-1.39-6.7-.56-10,.73-2.86,2.68-5.41,2.76-8.36.11-3.83-2.93-7-4.18-10.59-2-5.87.77-12.15,2.2-18.19,1.8-7.56,1.42-15.44,1-23.2-.81-16.47-1.69-33.22-7.29-48.73-.36-1-.88-3.17-1.56-5.19a3.41,3.41,0,0,0-5.68-1.29h0c-3.28,3.57-4.1,8.67-4.78,13.47q-.94,6.62-1.88,13.22L178.42,145c-2.53,17.79-5.06,35.67-4.76,53.63.11,6.35.56,12.77-.6,19-.79,4.19-2.29,8.24-2.78,12.47-.8,7.09,1.28,14.14,3.09,21a281.1,281.1,0,0,1,8.95,61c.27,7.58.23,15.2,1.6,22.66,1.3,7.14-6,8.86-6.21,16.11-.16,6.64,3.8,17.9,7.48,23.42.76,1.13,3.85,3.71,5.58,2.77a5.09,5.09,0,0,0,1.67-1.56c8.69-14.35,6-31.14,6.15-48.74.11-16.38-6.9-32.58-3.92-48.69C196,271.05,198.63,264.3,200.42,257.34Z" id="el9qhq3xlmdyf" class="animable" style="transform-origin: 187.023px 235.338px;"></path></g></g><g id="el2uhyfjilgqi"><g style="opacity: 0.2; transform-origin: 207.55px 261.72px;" class="animable"><circle cx="207.55" cy="261.72" r="2.45" id="elkfkicpyiyt" class="animable" style="transform-origin: 207.55px 261.72px;"></circle></g></g><g id="elnqvjfkcev4f"><g style="opacity: 0.2; transform-origin: 182.56px 368.779px;" class="animable"><path d="M195.67,382.75a3.3,3.3,0,0,0-3-.76c-1.05.17-2.05.6-3.11.78a6.81,6.81,0,0,1-5.33-1.36,3.94,3.94,0,0,1-1.57-2.42c-.07-.54,0-1.09,0-1.64-.24-2.54-3.23-3.85-4.37-6.15-.76-1.53-.64-3.42-1.55-4.87-.6-.95-1.59-1.61-2.25-2.53-1.45-2-1.09-4.72-1.44-7.16s-1.54-4.84-1.89-7.35a4.55,4.55,0,0,0-.41-1.64,1.23,1.23,0,0,0-1.42-.66l-.55,2.06,1.92,8.24a39.88,39.88,0,0,1,1.28,7.82,11.46,11.46,0,0,0,.53,4.38c.56,1.24,1.67,2.21,2.06,3.51s0,2.66.56,3.85,2,2,2.69,3.24a11.85,11.85,0,0,1,.82,3.16,9.31,9.31,0,0,0,4.82,6,13.33,13.33,0,0,0,7.7,1.23,5.12,5.12,0,0,0,2.17-.65,5.91,5.91,0,0,0,1.56-1.77,8.49,8.49,0,0,0,1.32-2.55A3,3,0,0,0,195.67,382.75Z" id="elw9fagkd9sl" class="animable" style="transform-origin: 182.56px 368.779px;"></path></g></g><g id="elukqf38y6koa"><g style="opacity: 0.2; transform-origin: 199.984px 371.641px;" class="animable"><path d="M197.86,378.82c1.22-.56,1.78-1.95,2.23-3.22l.89-2.55a27.26,27.26,0,0,0,1.92-7.8,1,1,0,0,0-.17-.75.82.82,0,0,0-1,0,2.63,2.63,0,0,0-1.13,1.68c-.19.67-.25,1.38-.49,2a10.51,10.51,0,0,0-.59,1.53c-.13.62,0,1.28-.11,1.91-.23,1.23-1.39,2.16-1.53,3.4,0,.31,0,.63-.06.93-.12.6-.55,1.08-.72,1.66s.14,1.39.74,1.34" id="elco39k6dr2rt" class="animable" style="transform-origin: 199.984px 371.641px;"></path></g></g><g id="eljhx40usstne"><g style="opacity: 0.2; transform-origin: 203.824px 294.58px;" class="animable"><path d="M204,272.42a1.65,1.65,0,0,1,2.2-1.51,2.65,2.65,0,0,1,1.26,2.82,9.67,9.67,0,0,1-1.24,3.06,5.43,5.43,0,0,0-.81,3.16c.14,1.11.88,2.05,1.22,3.11,1.13,3.53-2.2,7.14-1.7,10.8.32,2.28,2.05,4.11,2.65,6.33s0,4.69.12,7.05c.11,1.66.62,3.29.64,5a8.8,8.8,0,0,1-1.77,5.42,1.84,1.84,0,0,1-.71.62c-1,.38-1.75-1-1.86-2.11-.52-5,.93-10.45-1.52-14.85-.53-1-1.24-1.83-1.71-2.83a13.18,13.18,0,0,1-.95-3.61c-.42-2.5-.84-5.1-.13-7.54.44-1.53,1.33-3,1.13-4.6a19.07,19.07,0,0,0-.53-2,6,6,0,0,1,2.87-6.75A3.74,3.74,0,0,0,204,272.42Z" id="elwrjeeqp7jbf" class="animable" style="transform-origin: 203.824px 294.58px;"></path></g></g><g id="elvasq0pt85bs"><g style="opacity: 0.2; transform-origin: 208.425px 196.344px;" class="animable"><path d="M210.8,209.25c-.31-2.11-.5-4.23-.69-6.36q-.35-4-.71-7.91c-.45-5-.9-10.13-.06-15.13a2.44,2.44,0,0,0-.44-1.93,1.36,1.36,0,0,0-2.23,0c-1.38,1.6-.07,4,.08,6.09.19,2.74-1.75,5.42-1.14,8.1.2.83.63,1.6.82,2.44.43,1.9-.41,4,.43,5.78a8.61,8.61,0,0,1,.9,1.76,4.16,4.16,0,0,1-.08,1.49,24.77,24.77,0,0,0,.52,10.56,1.61,1.61,0,0,0,1.87,1.18c.88-.22,1.22-1.17,1.29-2.43A21.89,21.89,0,0,0,210.8,209.25Z" id="eljunbd7qu92" class="animable" style="transform-origin: 208.425px 196.344px;"></path></g></g><g id="elp1bwvl0wzh"><g style="opacity: 0.2; transform-origin: 181.878px 112.49px;" class="animable"><path d="M195.67,79.68A9.86,9.86,0,0,0,184.3,75.1c-5.38,1.64-8.25,7.46-9.25,12.92s-.78,11.2-2.87,16.35c-1.15,2.83-3,5.71-2.29,8.67.31,1.27,1.07,2.39,1.38,3.66a11,11,0,0,1-.2,4.48q-2,11-3,22.07a27.39,27.39,0,0,0-.33,5.34,1.88,1.88,0,0,0,3.46.82,3.35,3.35,0,0,0,.42-1,11.26,11.26,0,0,0-.4-4.56,22.32,22.32,0,0,1,1.59-13.39,9.22,9.22,0,0,0,1.25-4c0-1-.45-1.93-.47-2.91,0-2.47,2.42-4.42,2.52-6.89a11.36,11.36,0,0,0-.72-3.31,11.45,11.45,0,0,1,1.25-8.8c.78-1.29,1.87-2.6,1.67-4.09-.12-1-.79-1.8-1-2.77-.61-3.44,4.64-4.82,6.24-7.94,1.06-2,.59-5,2.58-6.24,2.74-1.67,6.94,2.15,9.2-.47A3,3,0,0,0,195.67,79.68Z" id="elnpx1pq2zrzj" class="animable" style="transform-origin: 181.878px 112.49px;"></path></g></g><g id="el1c4vz5etruo"><g style="opacity: 0.2; transform-origin: 201.05px 94.7127px;" class="animable"><path d="M203,93.9a3.08,3.08,0,0,1-.19-.94,8.25,8.25,0,0,1,.46-1.57,2.47,2.47,0,0,0-1.34-2.21,2.21,2.21,0,0,0-2.42.21h0c-.89.21-1.05,1.45-.69,2.28A11.93,11.93,0,0,1,200,94.1a10.5,10.5,0,0,1,0,1.68,8.23,8.23,0,0,0,1,3.48c.27.59.69,1.28,1.35,1.25.85,0,1.09-1.14,1.09-2A16.34,16.34,0,0,0,203,93.9Z" id="el64q8r5fa2vr" class="animable" style="transform-origin: 201.05px 94.7127px;"></path></g></g><path d="M194.84,223.85c0,2.5,0,26.27,0,26.27l-9.09,13.18V302l-16.69-21.83,1.92-4,16.7-35.46" style="fill: rgb(69, 90, 100); transform-origin: 181.95px 262.925px;" id="ely8txff59hz" class="animable"></path><path d="M183.39,161.52c.27-.2,9.22-14.89,9.22-14.89L194.12,159v9.19Z" style="fill: rgb(255, 191, 157); transform-origin: 188.755px 157.41px;" id="elldzvz5c7de" class="animable"></path><path d="M41.92,429.7,18.34,455.14l40.29,33.58c3-4-11.43-29.14-11.43-29.14l12.54-14Z" style="fill: rgb(69, 90, 100); transform-origin: 39.04px 459.21px;" id="eln0n0svs5u4" class="animable"></path><path d="M36.19,447.44a2.15,2.15,0,0,0-2.7.93,2.07,2.07,0,0,0,.9,2.69,2.26,2.26,0,0,0,2.86-1A2.15,2.15,0,0,0,36,447.37" style="fill: rgb(224, 224, 224); transform-origin: 35.3316px 449.256px;" id="elgs6xmis5aof" class="animable"></path><path d="M18.34,455.14l2.8-3.43,37.5,33.77s1.13,2.28-.13,3.37Z" style="fill: rgb(224, 224, 224); transform-origin: 38.7229px 470.28px;" id="el32fi6521udf" class="animable"></path><path d="M48,459.91c-.17.2-1.23-.53-2.72-.71s-2.7.22-2.82,0,1.13-1.12,2.93-.87S48.21,459.77,48,459.91Z" style="fill: rgb(224, 224, 224); transform-origin: 45.2396px 459.115px;" id="elo6ymo5sa6h" class="animable"></path><path d="M50.79,465.18c-.11.23-1.25-.14-2.61.13s-2.29,1-2.47.82.61-1.38,2.31-1.69S50.94,465,50.79,465.18Z" style="fill: rgb(224, 224, 224); transform-origin: 48.2437px 465.266px;" id="el46n8xj4fr4w" class="animable"></path><path d="M49,472.24c-.21-.1.34-1.32,1.74-2s2.68-.32,2.63-.09-1.11.34-2.25.89S49.19,472.39,49,472.24Z" style="fill: rgb(224, 224, 224); transform-origin: 51.1641px 471.053px;" id="el203lxvi2msm" class="animable"></path><path d="M51.62,454.87c-.23.11-.9-.91-2.08-1.76s-2.33-1.23-2.29-1.48,1.45-.26,2.82.76S51.85,454.8,51.62,454.87Z" style="fill: rgb(224, 224, 224); transform-origin: 49.4646px 453.184px;" id="elis623b3e7g" class="animable"></path><path d="M54.65,449.29c-.07.08-.94-.44-2-1.69a11.55,11.55,0,0,1-1.57-2.41,13.36,13.36,0,0,1-.65-1.58,3.57,3.57,0,0,1-.21-1,1.1,1.1,0,0,1,.78-1.12,1.42,1.42,0,0,1,1.24.26,3.2,3.2,0,0,1,.67.74,9.6,9.6,0,0,1,.9,1.48,9.47,9.47,0,0,1,.84,2.77,4.44,4.44,0,0,1-.18,2.63c-.15,0-.09-1-.44-2.52a10.45,10.45,0,0,0-1-2.51A9.28,9.28,0,0,0,52.2,443c-.33-.47-.69-.78-1-.68-.1,0-.13.06-.14.26a2.2,2.2,0,0,0,.16.72,14.62,14.62,0,0,0,.55,1.5,15.55,15.55,0,0,0,1.33,2.38A18.18,18.18,0,0,1,54.65,449.29Z" style="fill: rgb(224, 224, 224); transform-origin: 52.494px 445.407px;" id="eljntog3vgqe" class="animable"></path><path d="M54.16,449.36c-.1,0,.1-1.06,1.09-2.39a8.62,8.62,0,0,1,3.65-2.78,2.2,2.2,0,0,1,2.14.05,1.23,1.23,0,0,1,.37,1.27,3.33,3.33,0,0,1-.41.91,5.61,5.61,0,0,1-1.13,1.36,6.15,6.15,0,0,1-2.6,1.37c-1.65.39-2.67-.06-2.63-.14s1,0,2.46-.47a6,6,0,0,0,2.21-1.36,5.37,5.37,0,0,0,.94-1.2c.29-.48.42-1,.22-1.05a1.47,1.47,0,0,0-1.25.08,8.83,8.83,0,0,0-1.42.67,9.6,9.6,0,0,0-2.06,1.69C54.69,448.51,54.29,449.42,54.16,449.36Z" style="fill: rgb(224, 224, 224); transform-origin: 57.7981px 446.65px;" id="elcawg9rnh88t" class="animable"></path><path d="M169.22,279.77c-5.67-6.48-14.92-12.61-14.92-12.61l-55.43,6.13-3.49,3.25c.75,4.47,3.08,18.64,8,25,6.06,7.83,13.23,14.53,34.65,17.63,4.87.7,8.58,9.82,13.29,11.83,10.54,10.16,30.42,28.36,34,30.14q4-25.26,6.21-51.85C186.75,303.38,173.67,284.86,169.22,279.77Z" style="fill: rgb(38, 50, 56); transform-origin: 143.455px 314.15px;" id="elin8v8ydvf6e" class="animable"></path><path d="M153.9,292,113,277.93s1,17.12,3.43,21.45l-25.82,57S65.23,390.9,58,400.32c-9.42,12.22-24.85,37.62-24.85,37.62l22.6,16.46,56-66.7s6.19-2.7,8.45-6.3l42.45-52.69Z" style="fill: rgb(38, 50, 56); transform-origin: 97.9px 366.165px;" id="elt58pbu850dq" class="animable"></path><path d="M54.05,212.05l26.08-37.51a18,18,0,0,1,13.66-7.42l48-2.5s6.89-8.28,11-7.42,10.45,5,8.7,12.62-12.16,23.07-24.16,24.52L97,194.22,69.18,223Z" style="fill: rgb(69, 90, 100); transform-origin: 107.919px 190.069px;" id="elaslzukn2ffi" class="animable"></path><polyline points="180.29 258.43 145.66 272.37 169.22 279.77" style="fill: rgb(224, 224, 224); transform-origin: 162.975px 269.1px;" id="eleppi9uqer9" class="animable"></polyline><path d="M179.67,161.25l-26.79-2.8L138.52,191.2l-11.71,48.6S87.72,263.37,80.1,273.49C76.27,278.58,88,291.7,88,291.7s12.16,17.65,23.83,15.47,38.15-21.74,51.32-31.24c3.88-2.79,10.75-7.86,15-14.08a78.59,78.59,0,0,0,9.69-21.54Z" style="fill: rgb(69, 90, 100); transform-origin: 133.586px 232.903px;" id="elt5x9vyjmth" class="animable"></path><path d="M194.87,169.6a73.06,73.06,0,0,0-12.5-12l-2.7,3.67.27,2.56,7.9,76.5,6.91-15.44s.06-16.93.09-27.05V181.43Z" style="fill: rgb(224, 224, 224); transform-origin: 187.27px 198.965px;" id="el60jrugw1oyw" class="animable"></path><path d="M182.13,236.36a3.33,3.33,0,0,1-.25-.75c-.15-.57-.36-1.3-.61-2.2-.52-1.91-1.34-4.65-2.4-8s-2.38-7.4-3.8-11.84-3-9.38-4.33-14.63a61.36,61.36,0,0,1-1.55-7.77,19.37,19.37,0,0,1,.69-7.38c1.34-4.56,3.59-8.19,5.09-11.38a31,31,0,0,0,2.83-7.82c.08-.48.16-.91.22-1.29s.06-.68.08-1a3.7,3.7,0,0,1,.1-.79,3.74,3.74,0,0,1,0,.8c0,.28,0,.6,0,1s-.1.83-.17,1.31a28.91,28.91,0,0,1-2.68,8c-1.46,3.23-3.65,6.89-4.94,11.35a18.91,18.91,0,0,0-.63,7.17,61.84,61.84,0,0,0,1.55,7.68c1.33,5.23,2.87,10.14,4.27,14.61s2.67,8.48,3.68,11.88,1.77,6.17,2.22,8.1c.24,1,.39,1.72.5,2.23A4.56,4.56,0,0,1,182.13,236.36Z" style="fill: rgb(38, 50, 56); transform-origin: 175.612px 198.935px;" id="elgzurad7s696" class="animable"></path><path d="M184.18,244.55a2.07,2.07,0,0,1-.48.32c-.32.19-.78.49-1.41.81a38.36,38.36,0,0,1-5.52,2.38,41,41,0,0,1-19.6,1.78A43.31,43.31,0,0,1,139,242.35a42.82,42.82,0,0,1-4.63-3.81c-.52-.49-.89-.9-1.15-1.16a1.88,1.88,0,0,1-.37-.44,17.51,17.51,0,0,1,1.67,1.42A53,53,0,0,0,139.2,242a44.59,44.59,0,0,0,18.06,7.24,42.4,42.4,0,0,0,19.38-1.58,47.52,47.52,0,0,0,5.54-2.19A21.12,21.12,0,0,1,184.18,244.55Z" style="fill: rgb(69, 90, 100); transform-origin: 158.515px 243.626px;" id="elpqedmow8u8" class="animable"></path><path d="M179.44,252.94s-.27.3-.84.77-1.41,1.1-2.49,1.84a45.2,45.2,0,0,1-9.08,4.68,43.17,43.17,0,0,1-9.93,2.45,29.8,29.8,0,0,1-3.09.24,4.34,4.34,0,0,1-1.13,0c0-.1,1.6-.21,4.16-.62a51,51,0,0,0,9.77-2.6,53.53,53.53,0,0,0,9.07-4.47C178.09,253.82,179.38,252.86,179.44,252.94Z" style="fill: rgb(38, 50, 56); transform-origin: 166.16px 257.946px;" id="elgy7qjwnmuu4" class="animable"></path><path d="M146.22,191.9c-.07-.1,1.79-1.14,4.22-3.5a26.11,26.11,0,0,0,7.46-24.16,50.33,50.33,0,0,0-1.52-5.28,5.91,5.91,0,0,1,.69,1.32,22.91,22.91,0,0,1,1.25,3.87,25.43,25.43,0,0,1-7.58,24.56,22.51,22.51,0,0,1-3.22,2.48A6.2,6.2,0,0,1,146.22,191.9Z" style="fill: rgb(38, 50, 56); transform-origin: 152.605px 175.43px;" id="eltgob8sinshj" class="animable"></path><path d="M90.74,181.07a25.2,25.2,0,0,1,4.28,6.1c2,3.63,3,6.85,2.85,6.9s-1.4-3-3.38-6.61S90.59,181.18,90.74,181.07Z" style="fill: rgb(38, 50, 56); transform-origin: 94.3082px 187.57px;" id="eltqm8g4fpop" class="animable"></path><path d="M94.14,177.44a47.07,47.07,0,0,1,2.29,7.17c1.11,4,1.88,7.28,1.71,7.32s-1.18-3.16-2.29-7.16S94,177.49,94.14,177.44Z" style="fill: rgb(38, 50, 56); transform-origin: 96.1433px 184.685px;" id="el5750djrxg65" class="animable"></path><path d="M134.55,255.36a10,10,0,0,1,1.78-.27l4.88-.55c4.12-.47,9.8-1.2,16-2.23s11.85-2.17,15.9-3.05l4.8-1a10.43,10.43,0,0,1,1.77-.33,10,10,0,0,1-1.72.56c-1.11.32-2.74.74-4.76,1.23-4,1-9.64,2.2-15.89,3.24s-12,1.69-16.09,2.06c-2.07.18-3.75.3-4.91.36A10.28,10.28,0,0,1,134.55,255.36Z" style="fill: rgb(38, 50, 56); transform-origin: 157.115px 251.669px;" id="elcyk6pw22kn5" class="animable"></path><path d="M152,239.8a28,28,0,0,1,3.52,1.11c2.16.72,5.15,1.67,8.49,2.56s6.42,1.56,8.64,2a26.11,26.11,0,0,1,3.6.8,19.2,19.2,0,0,1-3.67-.38,84.42,84.42,0,0,1-17.2-4.59A19.25,19.25,0,0,1,152,239.8Z" style="fill: rgb(38, 50, 56); transform-origin: 164.125px 243.035px;" id="elqy0pnsv75p" class="animable"></path><polyline points="132.8 271.78 122.8 276.87 104.08 257.79 114.56 254.8" style="fill: rgb(69, 90, 100); transform-origin: 118.44px 265.835px;" id="el8dkes02zu4m" class="animable"></polyline><path d="M114.56,254.8a3.19,3.19,0,0,1-.73.28l-2.1.68L104.15,258l.11-.42,9.5,9.62c3.4,3.48,6.56,6.72,9.22,9.46l-.29-.05,7.3-3.59,2.06-1a3.45,3.45,0,0,1,.75-.3,2.72,2.72,0,0,1-.68.44l-2,1.09-7.21,3.79-.17.08-.13-.13-9.29-9.4L103.9,258l-.3-.31.41-.11,7.64-2.07,2.14-.54A2.66,2.66,0,0,1,114.56,254.8Z" style="fill: rgb(38, 50, 56); transform-origin: 118.2px 265.96px;" id="elq3l1gr5gux" class="animable"></path><path d="M132.8,271.78c-.11.13-3.64-3-7.86-7s-7.57-7.35-7.45-7.47a94.82,94.82,0,0,1,7.86,7C129.58,268.32,132.92,271.66,132.8,271.78Z" style="fill: rgb(38, 50, 56); transform-origin: 125.145px 264.547px;" id="elogopd0lpky" class="animable"></path><path d="M171.77,268.84c-.07-.08,1.32-1.37,3.18-3.79a74.73,74.73,0,0,0,6.4-10.06,73.45,73.45,0,0,0,4.83-10.9c1-2.89,1.29-4.77,1.39-4.75a6,6,0,0,1-.13,1.33,28.16,28.16,0,0,1-.85,3.55,66.52,66.52,0,0,1-11.31,21.09A26.48,26.48,0,0,1,172.8,268,5.57,5.57,0,0,1,171.77,268.84Z" style="fill: rgb(38, 50, 56); transform-origin: 179.669px 254.09px;" id="el66bvu3ah7hc" class="animable"></path><path d="M194.86,181.27a45.72,45.72,0,0,1-4,3.55,38.87,38.87,0,0,0-1.7-5.56,98.18,98.18,0,0,0-6.38-13c-.92-1.62-1.7-2.91-2.24-3.8a8,8,0,0,0-.91-1.35,7.83,7.83,0,0,0,.69,1.46l2,3.89a122.82,122.82,0,0,1,6.19,13,43,43,0,0,1,1.81,5.92l.09.44.38-.26a28.45,28.45,0,0,0,4-3.61Z" style="fill: rgb(38, 50, 56); transform-origin: 187.245px 173.465px;" id="elmqnsho42e1" class="animable"></path><g id="el2lqrqwawwi8"><g style="opacity: 0.3; transform-origin: 163.695px 203.557px;" class="animable"><path d="M181,194.1c-5.91-1.65-11.73-4.38-17.86-4-7,.44-13,4.84-18.59,9.06-2.86,2.17-6.2,4.05-9.06,6.22l-2.82,11.44c4.74,1.13,10-2.11,13.38-5.6s6.21-7.68,10.46-10.07,9.13-2.64,13.87-2.19,9.39,1.58,14.14,1.91c3.83.27,7,0,10.2-1.48l0-5.26C190.64,195.82,185.5,195.34,181,194.1Z" id="elkor5gbr1kft" class="animable" style="transform-origin: 163.695px 203.557px;"></path></g></g><path d="M194.8,188.22a16.63,16.63,0,0,1-4.14.29c-10.18-.7-18.46-8.64-28.63-9.44-7.07-.56-14.57,2.79-20.61,6.48s-11.23,8.6-17.07,12.6c-14,9.55-17.1,8.08-31,10.76l-4.47,10.33,11.75,2.89s28-7.27,36.9-16.25c9-9.15,14.14-17.24,20.67-18.86,14-3.47,28.3,8.39,36.64,6.7Z" style="fill: rgb(0, 255, 136); transform-origin: 141.86px 200.569px;" id="elpllbym0sh6q" class="animable"></path><g id="elwtm6d0drbh"><g style="opacity: 0.3; transform-origin: 116.645px 270.47px;" class="animable"><polygon points="107.36 261.14 102.14 262.88 118.44 279.8 131.15 272.62 123.03 276.2 107.36 261.14" id="el2w8a7r8jppv" class="animable" style="transform-origin: 116.645px 270.47px;"></polygon></g></g><g id="elinwrn7x1sv"><g style="opacity: 0.3; transform-origin: 156.96px 256.588px;" class="animable"><path d="M176.15,251.86c-11.75,6-25.25,7.26-38.38,8.45,11.18,2.57,27,.38,38.38-8.45" id="elca7jqv6b2hn" class="animable" style="transform-origin: 156.96px 256.588px;"></path></g></g><path d="M193.8,129.05l-6,12.6L184,158.45l11.56,12V159.68A273.9,273.9,0,0,0,193.8,129.05Z" style="fill: rgb(255, 191, 157); transform-origin: 189.78px 149.75px;" id="el2jwnhsurw21" class="animable"></path><path d="M190.31,110.2c-2.31,3.88-4.76,12-5.59,18-.65,4.67,2.13,6.23,2,7.34-1.08,8.61,2.21,7.16,7.09-6.51A154.44,154.44,0,0,0,190.31,110.2Z" style="fill: rgb(38, 50, 56); transform-origin: 189.216px 125.554px;" id="el3vhmdbexdro" class="animable"></path><path d="M189,135.77a3.24,3.24,0,0,0-2.67-3.85c-2.2-.31-4.89.35-5.82,4.87-1.64,8,6.7,8,6.76,7.76S188.33,139.13,189,135.77Z" style="fill: rgb(255, 191, 157); transform-origin: 184.681px 138.235px;" id="elt2hv8ynoqfj" class="animable"></path><path d="M186.14,141.19s-.16.06-.41.13a1.44,1.44,0,0,1-1-.2c-.77-.48-1.21-2-1-3.42a4.74,4.74,0,0,1,.8-1.92,1.64,1.64,0,0,1,1.26-.85.71.71,0,0,1,.74.55c.06.24,0,.39,0,.41s.2-.1.2-.44a.93.93,0,0,0-.21-.56,1.08,1.08,0,0,0-.73-.37,2,2,0,0,0-1.7.95,4.88,4.88,0,0,0-.94,2.13c-.28,1.63.23,3.31,1.32,3.88a1.5,1.5,0,0,0,1.31,0C186.09,141.38,186.16,141.21,186.14,141.19Z" style="fill: rgb(255, 154, 108); transform-origin: 184.902px 138.075px;" id="elgho4b5bz868" class="animable"></path><path d="M189.52,105.76a3.05,3.05,0,0,0-.8,3.32,5,5,0,0,0-3.59,3.25c-.42,1.64.78,3.65,2.46,3.6a3,3,0,0,0,.23,4,3,3,0,0,0,4,0Z" style="fill: rgb(38, 50, 56); transform-origin: 188.433px 113.227px;" id="eletnc7olm24j" class="animable"></path><path d="M163.71,343a3,3,0,0,1-.53-.44l-1.45-1.33-5.26-5-7.76-7.39-4.57-4.39a35.78,35.78,0,0,0-5.06-4.42c-1.94-1.23-4.28-1.2-6.45-1.46a40.73,40.73,0,0,1-6.25-1.19,41.73,41.73,0,0,1-9.9-4.19A39.38,39.38,0,0,1,110.6,309c-.65-.56-1.13-1-1.45-1.34s-.48-.49-.46-.51.71.62,2,1.69a43.27,43.27,0,0,0,5.93,4.06,42.66,42.66,0,0,0,9.84,4,40.3,40.3,0,0,0,6.18,1.15c1.08.14,2.2.18,3.34.36a8.84,8.84,0,0,1,3.33,1.16,15.93,15.93,0,0,1,2.73,2.18l2.42,2.33,4.54,4.4,7.68,7.48,5.15,5.07,1.38,1.4A3.62,3.62,0,0,1,163.71,343Z" style="fill: rgb(69, 90, 100); transform-origin: 136.199px 325.075px;" id="elyf6nj7k9wgg" class="animable"></path><path d="M210.08,135l1.19.61a.23.23,0,0,1,0,.39l-1.16.67a.2.2,0,0,0-.09.09l-.61,1.19a.23.23,0,0,1-.39,0l-.67-1.16a.2.2,0,0,0-.09-.09l-1.19-.61a.23.23,0,0,1,0-.39l1.16-.67a.2.2,0,0,0,.09-.09l.61-1.19a.23.23,0,0,1,.39,0l.67,1.16A.2.2,0,0,0,210.08,135Z" style="fill: rgb(255, 255, 255); transform-origin: 209.17px 135.85px;" id="elbno2lq7wcz4" class="animable"></path><path d="M207.72,325.48l1.19.62a.21.21,0,0,1,0,.38l-1.15.67a.2.2,0,0,0-.09.09l-.61,1.19a.23.23,0,0,1-.39,0l-.67-1.16a.2.2,0,0,0-.09-.09l-1.19-.61a.23.23,0,0,1,0-.39l1.16-.67a.2.2,0,0,0,.09-.09l.61-1.19a.23.23,0,0,1,.39,0l.67,1.16A.24.24,0,0,0,207.72,325.48Z" style="fill: rgb(255, 255, 255); transform-origin: 206.821px 326.33px;" id="elfmf49g3yfd" class="animable"></path><path d="M168,154.11l1.19.61a.23.23,0,0,1,0,.39l-1.16.67a.24.24,0,0,0-.08.09l-.62,1.19a.22.22,0,0,1-.38,0l-.67-1.16a.2.2,0,0,0-.09-.09l-1.19-.61a.23.23,0,0,1,0-.39l1.16-.67a.2.2,0,0,0,.09-.09l.61-1.19a.23.23,0,0,1,.39,0l.67,1.16A.2.2,0,0,0,168,154.11Z" style="fill: rgb(255, 255, 255); transform-origin: 167.095px 154.961px;" id="elrh84dlypmop" class="animable"></path></g><g id="freepik--Stars--inject-98" class="animable animator-active" style="transform-origin: 283.513px 234.472px;"><path d="M300.7,165.69l1.9,1a.35.35,0,0,1,0,.62l-1.85,1.07a.35.35,0,0,0-.13.14l-1,1.9a.36.36,0,0,1-.62,0L298,168.56a.35.35,0,0,0-.14-.13l-1.9-1a.36.36,0,0,1,0-.62l1.85-1.07a.29.29,0,0,0,.13-.14l1-1.9a.36.36,0,0,1,.62,0l1.07,1.85A.35.35,0,0,0,300.7,165.69Z" style="fill: rgb(0, 255, 136); transform-origin: 299.285px 167.06px;" id="eliqod85m63gc" class="animable"></path><path d="M414,282.15l1.19.62a.21.21,0,0,1,0,.38l-1.16.67a.17.17,0,0,0-.08.09l-.62,1.19a.21.21,0,0,1-.38,0l-.68-1.16a.3.3,0,0,0-.08-.08l-1.19-.62a.21.21,0,0,1,0-.38l1.16-.67a.24.24,0,0,0,.08-.09l.62-1.19a.21.21,0,0,1,.38,0l.67,1.16A.24.24,0,0,0,414,282.15Z" style="fill: rgb(0, 255, 136); transform-origin: 413.095px 283.005px;" id="eli4uv1zs7se" class="animable"></path><path d="M432.83,108.5l1.19.61a.22.22,0,0,1,0,.39l-1.16.67a.24.24,0,0,0-.08.09l-.62,1.19a.22.22,0,0,1-.38,0l-.67-1.16a.2.2,0,0,0-.09-.09l-1.19-.61a.22.22,0,0,1,0-.39l1.16-.67a.24.24,0,0,0,.08-.09l.62-1.19a.22.22,0,0,1,.38,0l.67,1.16A.38.38,0,0,0,432.83,108.5Z" style="fill: rgb(0, 255, 136); transform-origin: 431.925px 109.35px;" id="el2u6vl7qzdfu" class="animable"></path><path d="M329.86,339.13l1.19.62a.22.22,0,0,1,0,.38l-1.16.67-.09.09-.61,1.19a.22.22,0,0,1-.39,0l-.67-1.16a.24.24,0,0,0-.09-.08l-1.19-.62a.22.22,0,0,1,0-.38l1.16-.67a.2.2,0,0,0,.09-.09l.61-1.19a.22.22,0,0,1,.39,0l.67,1.16A.24.24,0,0,0,329.86,339.13Z" style="fill: rgb(0, 255, 136); transform-origin: 328.95px 339.985px;" id="elsdgh5zqd2hm" class="animable"></path><path d="M324.63,125.8l3.93,2a.73.73,0,0,1,0,1.28l-3.83,2.21a.73.73,0,0,0-.28.3l-2,3.93a.73.73,0,0,1-1.28,0L319,131.75a.73.73,0,0,0-.3-.28l-3.93-2a.73.73,0,0,1,0-1.28l3.83-2.21a.73.73,0,0,0,.28-.3l2-3.93a.73.73,0,0,1,1.28,0l2.21,3.83A.73.73,0,0,0,324.63,125.8Z" style="fill: rgb(0, 255, 136); transform-origin: 321.665px 128.635px;" id="ellv1ub60rytr" class="animable"></path><path d="M424.36,266.84l2.42,1.25a.44.44,0,0,1,0,.78l-2.35,1.36a.37.37,0,0,0-.17.18L423,272.83a.46.46,0,0,1-.79,0l-1.36-2.36a.42.42,0,0,0-.18-.17l-2.42-1.25a.44.44,0,0,1,0-.78l2.35-1.36a.52.52,0,0,0,.17-.19l1.25-2.41a.45.45,0,0,1,.79,0l1.36,2.35A.39.39,0,0,0,424.36,266.84Z" style="fill: rgb(0, 255, 136); transform-origin: 422.515px 268.565px;" id="ela33nklmijh" class="animable"></path><path d="M442.2,87.41l2.41,1.25a.44.44,0,0,1,0,.78l-2.35,1.36a.45.45,0,0,0-.18.18l-1.25,2.42a.45.45,0,0,1-.78,0l-1.36-2.36a.49.49,0,0,0-.18-.17l-2.42-1.25a.45.45,0,0,1,0-.78l2.36-1.36a.52.52,0,0,0,.17-.19l1.25-2.41a.44.44,0,0,1,.78,0L442,87.23A.47.47,0,0,0,442.2,87.41Z" style="fill: rgb(0, 255, 136); transform-origin: 440.355px 89.1346px;" id="eluy2ho0qz0ec" class="animable"></path><path d="M147.43,112.19l1.89,1a.35.35,0,0,1,0,.61l-1.85,1.07a.32.32,0,0,0-.14.14l-1,1.9a.35.35,0,0,1-.61,0l-1.07-1.85a.32.32,0,0,0-.14-.14l-1.9-1a.35.35,0,0,1,0-.62l1.85-1.06a.4.4,0,0,0,.14-.15l1-1.9a.35.35,0,0,1,.61,0l1.07,1.85A.4.4,0,0,0,147.43,112.19Z" style="fill: rgb(0, 255, 136); transform-origin: 145.96px 113.55px;" id="elvo2rs16nwtn" class="animable"></path><path d="M232.89,266l1.9,1a.34.34,0,0,1,0,.61L233,268.65a.32.32,0,0,0-.14.14l-1,1.9a.35.35,0,0,1-.62,0l-1.07-1.85a.32.32,0,0,0-.14-.14l-1.9-1a.35.35,0,0,1,0-.61l1.85-1.07a.37.37,0,0,0,.13-.15l1-1.89a.35.35,0,0,1,.61,0l1.07,1.85A.32.32,0,0,0,232.89,266Z" style="fill: rgb(0, 255, 136); transform-origin: 231.466px 267.34px;" id="eliscfz7ghql" class="animable"></path><path d="M226.72,328.55l1.2.61a.23.23,0,0,1,0,.39l-1.16.67a.24.24,0,0,0-.08.09l-.62,1.19a.22.22,0,0,1-.38,0l-.67-1.16a.2.2,0,0,0-.09-.09l-1.19-.61a.22.22,0,0,1,0-.39l1.16-.67a.2.2,0,0,0,.09-.09l.61-1.19a.23.23,0,0,1,.39,0l.67,1.16A.24.24,0,0,0,226.72,328.55Z" style="fill: rgb(0, 255, 136); transform-origin: 225.82px 329.401px;" id="eliuflv1zet4b" class="animable"></path><path d="M153.8,381.23l1.19.62a.21.21,0,0,1,0,.38l-1.16.67a.34.34,0,0,0-.08.09l-.62,1.19a.21.21,0,0,1-.38,0l-.67-1.16L152,383l-1.19-.62a.21.21,0,0,1,0-.38l1.16-.67a.24.24,0,0,0,.08-.09l.62-1.19a.21.21,0,0,1,.38,0l.67,1.16A.24.24,0,0,0,153.8,381.23Z" style="fill: rgb(0, 255, 136); transform-origin: 152.9px 382.115px;" id="elg4vbk95nbue" class="animable"></path><path d="M132.46,127.9l3.93,2a.72.72,0,0,1,0,1.27l-3.83,2.22a.81.81,0,0,0-.29.29l-2,3.94a.72.72,0,0,1-1.27,0l-2.22-3.83a.81.81,0,0,0-.29-.29l-3.94-2a.73.73,0,0,1,0-1.27l3.84-2.22a.78.78,0,0,0,.28-.29l2-3.94a.73.73,0,0,1,1.27,0l2.22,3.84A.74.74,0,0,0,132.46,127.9Z" style="fill: rgb(0, 255, 136); transform-origin: 129.475px 130.705px;" id="el1297pjwhqrgg" class="animable"></path><path d="M246.24,294.14l3.93,2a.73.73,0,0,1,0,1.28l-3.83,2.21a.68.68,0,0,0-.28.3l-2,3.93a.72.72,0,0,1-1.27,0l-2.22-3.83a.71.71,0,0,0-.29-.28l-3.93-2a.73.73,0,0,1,0-1.28l3.83-2.21a.73.73,0,0,0,.28-.3l2-3.93a.73.73,0,0,1,1.28,0l2.21,3.83A.68.68,0,0,0,246.24,294.14Z" style="fill: rgb(0, 255, 136); transform-origin: 243.26px 296.946px;" id="elzlowlasr4i" class="animable"></path></g><defs>     <filter id="active" height="200%">         <feMorphology in="SourceAlpha" result="DILATED" operator="dilate" radius="2"></feMorphology>                <feFlood flood-color="#32DFEC" flood-opacity="1" result="PINK"></feFlood>        <feComposite in="PINK" in2="DILATED" operator="in" result="OUTLINE"></feComposite>        <feMerge>            <feMergeNode in="OUTLINE"></feMergeNode>            <feMergeNode in="SourceGraphic"></feMergeNode>        </feMerge>    </filter>    <filter id="hover" height="200%">        <feMorphology in="SourceAlpha" result="DILATED" operator="dilate" radius="2"></feMorphology>                <feFlood flood-color="#ff0000" flood-opacity="0.5" result="PINK"></feFlood>        <feComposite in="PINK" in2="DILATED" operator="in" result="OUTLINE"></feComposite>        <feMerge>            <feMergeNode in="OUTLINE"></feMergeNode>            <feMergeNode in="SourceGraphic"></feMergeNode>        </feMerge>            <feColorMatrix type="matrix" values="0   0   0   0   0                0   1   0   0   0                0   0   0   0   0                0   0   0   1   0 "></feColorMatrix>    </filter></defs></svg>